<?xml version="1.0" encoding="iso-8859-1"?>
<!-- Generator: Adobe Illustrator 19.0.0, SVG Export Plug-In . SVG Version: 6.00 Build 0)  -->
<svg version="1.1" id="Layer_1" xmlns="http://www.w3.org/2000/svg" xmlns:xlink="http://www.w3.org/1999/xlink" x="0px" y="0px"
	 viewBox="0 0 458.905 458.905" style="enable-background:new 0 0 458.905 458.905;" xml:space="preserve">
<g>
	<g>
		<g>
			<path d="M186.654,91.962c-5.857-5.858-15.355-5.858-21.213,0l-73.479,73.48c-5.858,5.858-5.858,15.355,0,21.213l46.789,46.79
				c5.852,5.853,15.357,5.858,21.213,0l73.48-73.48c5.854-5.853,5.858-15.356,0-21.213L186.654,91.962z M149.358,201.625
				l-25.576-25.576l52.267-52.267l25.577,25.576L149.358,201.625z"/>
			<path d="M454.511,354.584L299.245,199.318l17.883-17.883c9.643-9.642,14.953-22.462,14.953-36.098s-5.311-26.456-14.953-36.098
				l-94.287-94.287C213.199,5.31,200.38,0,186.744,0s-26.456,5.31-36.098,14.952L14.952,150.647C5.311,160.289,0,173.108,0,186.744
				c0,13.636,5.311,26.456,14.952,36.097l94.287,94.287c9.642,9.642,22.462,14.952,36.098,14.952
				c13.636,0,26.455-5.31,36.097-14.952l17.884-17.884l46.544,46.544c2.797,2.797,6.586,4.376,10.542,4.394l26.521,0.113
				l-4.63,17.335c-1.382,5.173,0.1,10.691,3.886,14.477l13.487,13.487c3.208,3.208,7.69,4.789,12.204,4.308l23.778-2.547
				l-3.714,21.525c-0.829,4.803,0.728,9.71,4.175,13.157l22.474,22.474c3.075,3.076,7.427,4.743,11.964,4.332l72.156-6.558
				c7.212-0.655,12.926-6.369,13.581-13.581l6.558-72.156C459.246,362.115,457.658,357.732,454.511,354.584z M160.221,295.916
				c-3.976,3.976-9.262,6.165-14.884,6.165c-5.623,0-10.909-2.189-14.885-6.165l-94.287-94.287C32.19,197.652,30,192.367,30,186.744
				c0-5.623,2.189-10.908,6.165-14.884L171.86,36.165c3.976-3.976,9.262-6.165,14.885-6.165c5.622,0,10.908,2.189,14.884,6.165
				l94.287,94.288c3.976,3.976,6.166,9.262,6.166,14.884s-2.189,10.908-6.166,14.884L160.221,295.916z M423.54,423.54l-52.711,4.791
				l-12.009-12.009l5.771-33.446c0.801-4.636-0.621-9.379-3.84-12.811c-3.218-3.432-7.854-5.157-12.539-4.654l-36.404,3.899
				l-2.297-2.297l7.415-27.763c1.199-4.493,0.248-9.288-2.576-12.981s-7.202-5.869-11.852-5.889l-39.791-0.17l-42.177-42.177
				l57.501-57.5L428.33,370.83L423.54,423.54z"/>
		</g>
	</g>
</g>
<g>
</g>
<g>
</g>
<g>
</g>
<g>
</g>
<g>
</g>
<g>
</g>
<g>
</g>
<g>
</g>
<g>
</g>
<g>
</g>
<g>
</g>
<g>
</g>
<g>
</g>
<g>
</g>
<g>
</g>
</svg>
